<svg width="128" height="128" xmlns="http://www.w3.org/2000/svg" viewBox="0 0 128 128" aria-labelledby="title">
  <title>General Bell</title>
  <path d="M64.5 16c1.3 0 2.3.9 2.5 2.2l.4 2.8 2.8.6C83.8 24.5 93.6 36.2 94 50.1V82l.5.9 7.9 15.1H25.6l7.9-15.1.5-.9V50.1c.4-14.1 10.8-26.2 24.7-28.6l2.8-.5.4-2.8c.3-1.3 1.4-2.2 2.6-2.2m0-4c-3.3 0-6 2.4-6.4 5.5C42.4 20.3 30.5 33.7 30 50v31l-11 21h90L98 81V50c-.5-16-11.9-29.1-27-32.3-.5-3.2-3.2-5.7-6.5-5.7z"/>
  <path d="M64 21c16.5 0 30 13.5 30 30h4c0-18.8-15.2-34-34-34S30 32.2 30 51h4c0-16.5 13.5-30 30-30M49 101c0 8.3 6.7 15 15 15s15-6.7 15-15"/>
  <path d="M61 21h7v-5h-7v5z"/>
</svg>
