<svg width="24" height="24" aria-labelledby="title" xmlns="http://www.w3.org/2000/svg" xmlns:xlink="http://www.w3.org/1999/xlink" x="0px" y="0px"
	 viewBox="0 0 24 24" style="enable-background:new 0 0 24 24;" xml:space="preserve">
<title>General Info Fill</title>
<path d="M12,1C5.9,1,1,5.9,1,12s4.9,11,11,11s11-4.9,11-11S18.1,1,12,1z M11.3,7.3C11.5,7.1,11.7,7,12,7s0.5,0.1,0.7,0.3
	S13,7.7,13,8s-0.1,0.5-0.3,0.7S12.3,9,12,9s-0.5-0.1-0.7-0.3S11,8.3,11,8S11.1,7.5,11.3,7.3z M14,17h-4v-1h1v-4h-1v-1h3v5h1V17z"/>
</svg>
