<svg width="32" height="32" aria-labelledby="title" xmlns="http://www.w3.org/2000/svg" xmlns:xlink="http://www.w3.org/1999/xlink" x="0px" y="0px"
	 viewBox="0 0 32 32" style="enable-background:new 0 0 32 32;" xml:space="preserve">
<title>General Info Fill</title>
<path d="M16,2C8.3,2,2,8.3,2,16s6.3,14,14,14s14-6.3,14-14S23.7,2,16,2z M14.6,8.6C15,8.2,15.5,8,16,8c0.6,0,1,0.2,1.4,0.6
	C17.8,9,18,9.5,18,10s-0.2,1-0.6,1.4C17,11.8,16.5,12,16,12c-0.6,0-1-0.2-1.4-0.6C14.2,11,14,10.5,14,10S14.2,9,14.6,8.6z M20,24h-8
	v-2h2v-6h-2v-2h6v8h2V24z"/>
</svg>
