<svg width="128" heigth="128" xmlns="http://www.w3.org/2000/svg" viewBox="0 0 128 128" aria-labelledby="title">
	<title>Join Left</title>  
  <path d="M60.5 94.3c1.1.9 2.3 1.8 3.5 2.5-6.1 3.9-13.3 6.1-21 6.1C21.5 103 4 85.5 4 64s17.5-39 39-39c7.7 0 14.9 2.2 21 6.1-1.2.8-2.4 1.6-3.5 2.5C51.6 40.8 46 51.8 46 64s5.6 23.2 14.5 30.3zM85 25c-7.7 0-14.9 2.2-21 6.1 1.2.8 2.4 1.6 3.5 2.5 5.1-3 11.1-4.7 17.5-4.7 19.3 0 35 15.7 35 35s-15.7 35-35 35c-6.4 0-12.3-1.7-17.5-4.7-1.1.9-2.3 1.8-3.5 2.5 6.1 3.9 13.3 6.1 21 6.1 21.5 0 39-17.5 39-39C124 42.5 106.5 25 85 25z"/>
  <path d="M82 64c0 12.2-5.6 23.2-14.5 30.3-1.2-.7-2.4-1.5-3.5-2.3-8.5-6.4-14-16.6-14-28s5.5-21.6 14-28c1.1-.9 2.3-1.6 3.5-2.3C76.4 40.8 82 51.8 82 64z"/>
</svg>
