<svg width="32" height="32" xmlns="http://www.w3.org/2000/svg" viewBox="0 0 32 32" aria-labelledby="title">
	<title>Join Inner</title>
  <path d="M11 26c1.8 0 3.5-.5 5-1.3 1.5.9 3.2 1.3 5 1.3 5.5 0 10-4.5 10-10S26.5 6 21 6c-1.8 0-3.5.5-5 1.3-1.5-.8-3.2-1.3-5-1.3C5.5 6 1 10.5 1 16s4.5 10 10 10zM21 8c4.4 0 8 3.6 8 8s-3.6 8-8 8c-1.1 0-2.2-.2-3.2-.7 2-1.8 3.2-4.4 3.2-7.3s-1.2-5.5-3.2-7.3c1-.5 2.1-.7 3.2-.7zM11 8c1.1 0 2.2.2 3.2.7-2 1.8-3.2 4.4-3.2 7.3s1.2 5.5 3.2 7.3c-1 .4-2.1.7-3.2.7-4.4 0-8-3.6-8-8s3.6-8 8-8z"/>
</svg>
