<svg width="32" height="32" xmlns="http://www.w3.org/2000/svg" viewBox="0 0 32 32" aria-labelledby="title">
	<title>Join Left</title>
  <path d="M14.2 23.3c.5.5 1.1 1 1.8 1.3-1.5.9-3.2 1.3-5 1.3C5.5 26 1 21.5 1 16S5.5 6 11 6c1.8 0 3.5.5 5 1.3-.7.4-1.3.8-1.8 1.3-2 1.8-3.2 4.4-3.2 7.3s1.2 5.6 3.2 7.4zM21 6c-1.8 0-3.5.5-5 1.3.7.4 1.3.8 1.8 1.3 1-.4 2.1-.6 3.2-.6 4.4 0 8 3.6 8 8s-3.6 8-8 8c-1.1 0-2.2-.2-3.2-.7-.5.5-1.1 1-1.8 1.3 1.5.9 3.2 1.3 5 1.3 5.5 0 10-4.5 10-10S26.5 6 21 6z"/>
  <path d="M21 16c0 2.9-1.2 5.5-3.2 7.3-.6-.3-1.2-.7-1.8-1.1-1.8-1.5-3-3.7-3-6.2s1.2-4.8 3-6.2c.5-.4 1.2-.8 1.8-1.1 2 1.8 3.2 4.4 3.2 7.3z"/>
</svg>
