<svg width="128" heigth="128" xmlns="http://www.w3.org/2000/svg" viewBox="0 0 128 128" aria-labelledby="title">
	<title>Join Inner</title>
  <path d="M85 25c-7.7 0-14.9 2.3-21 6.1-6.1-3.8-13.3-6.1-21-6.1C21.5 25 4 42.5 4 64s17.5 39 39 39c7.7 0 14.9-2.3 21-6.1 6.1 3.9 13.3 6.1 21 6.1 21.5 0 39-17.5 39-39s-17.5-39-39-39zM43 99C23.7 99 8 83.3 8 64s15.7-35 35-35c6.4 0 12.3 1.7 17.5 4.7C51.6 40.8 46 51.8 46 64s5.6 23.2 14.5 30.3C55.3 97.3 49.4 99 43 99zm42 0c-6.4 0-12.3-1.7-17.5-4.7C76.4 87.2 82 76.2 82 64s-5.6-23.2-14.5-30.3c5.1-3 11.1-4.7 17.5-4.7 19.3 0 35 15.7 35 35s-15.7 35-35 35z"/>
</svg>
