<svg width="24" height="24" xmlns="http://www.w3.org/2000/svg" viewBox="0 0 24 24" aria-labelledby="title">
	<title>Join Left</title>  
  <path d="M15 12c0 2-.8 3.8-2.2 5.1-.3-.2-.6-.4-.8-.6-1.2-1.1-2-2.7-2-4.5s.8-3.4 2-4.5c.2-.2.5-.4.8-.6C14.2 8.2 15 10 15 12z"/>
  <path d="M11.2 17.1c.2.2.5.5.8.7-1.1.7-2.5 1.2-4 1.2-3.9 0-7-3.1-7-7s3.1-7 7-7c1.5 0 2.9.5 4 1.3-.3.2-.6.4-.8.7C9.8 8.2 9 10 9 12s.8 3.8 2.2 5.1zM16 5c-1.5 0-2.9.5-4 1.3.3.2.6.4.8.7.9-.7 2-1 3.2-1 3.3 0 6 2.7 6 6s-2.7 6-6 6c-1.2 0-2.3-.3-3.2-.9-.2.2-.5.5-.8.7 1.1.8 2.5 1.3 4 1.3 3.9 0 7-3.1 7-7S19.9 5 16 5z"/>
</svg>
