<svg width="64" height="64" xmlns="http://www.w3.org/2000/svg" viewBox="0 0 64 64" aria-labelledby="title">
	<title>Join Right</title>
  <path d="M21 48c-8.8 0-16-7.2-16-16s7.2-16 16-16c3.2 0 6.1.9 8.6 2.5.7-.7 1.5-1.4 2.4-2-3.1-2.2-6.9-3.5-11-3.5-10.5 0-19 8.5-19 19s8.5 19 19 19c4.1 0 7.9-1.3 11-3.5-.8-.6-1.7-1.3-2.4-2-2.5 1.6-5.4 2.5-8.6 2.5z"/>
  <path d="M37 32c0 4.6-1.9 8.7-5 11.6-.7.7-1.5 1.3-2.4 1.9C26.1 42 24 37.3 24 32s2.1-10 5.6-13.5c.9.5 1.7 1.2 2.4 1.9 3.1 2.9 5 7 5 11.6z"/>
  <path d="M62 32c0 10.5-8.5 19-19 19-4.1 0-7.9-1.3-11-3.5.8-.6 1.7-1.3 2.4-2C37.9 42 40 37.3 40 32s-2.1-10-5.6-13.5c-.7-.7-1.5-1.4-2.4-2 3.1-2.2 6.9-3.5 11-3.5 10.5 0 19 8.5 19 19z"/>
</svg>
