<svg width="16" height="16" xmlns="http://www.w3.org/2000/svg" viewBox="0 0 16 16" aria-labelledby="title">
	<title>Join</title>
  <path d="M5 13c1.1 0 2.2-.4 3-1 .8.6 1.9 1 3 1 2.8 0 5-2.2 5-5s-2.2-5-5-5c-1.1 0-2.2.4-3 1-.8-.6-1.9-1-3-1-2.8 0-5 2.2-5 5s2.2 5 5 5zm3-7.6C8.6 6.1 9 7 9 8s-.4 1.9-1 2.6C7.4 9.9 7 9 7 8s.4-1.9 1-2.6zM15 8c0 2.2-1.8 4-4 4-.8 0-1.6-.3-2.3-.7.8-.9 1.3-2 1.3-3.3s-.5-2.4-1.3-3.3c.7-.4 1.5-.7 2.3-.7 2.2 0 4 1.8 4 4zM5 4c.8 0 1.6.3 2.3.7C6.5 5.6 6 6.7 6 8s.5 2.4 1.3 3.3c-.7.4-1.5.7-2.3.7-2.2 0-4-1.8-4-4s1.8-4 4-4z"/>
</svg>
