<svg width="24" height="24" xmlns="http://www.w3.org/2000/svg" viewBox="0 0 24 24" aria-labelledby="title">
	<title>Join Right</title>
  <path d="M8 18c-3.3 0-6-2.7-6-6s2.7-6 6-6c1.2 0 2.3.3 3.2.9.2-.2.5-.5.8-.7C10.9 5.5 9.5 5 8 5c-3.9 0-7 3.1-7 7s3.1 7 7 7c1.5 0 2.9-.5 4-1.3-.3-.2-.6-.4-.8-.7-.9.7-2 1-3.2 1z"/>
  <path d="M14 12c0 1.8-.8 3.4-2 4.5-.2.2-.5.4-.8.6C9.8 15.8 9 14 9 12s.8-3.8 2.2-5.1c.3.2.6.4.8.6 1.2 1.1 2 2.7 2 4.5z"/>
  <path d="M23 12c0 3.9-3.1 7-7 7-1.5 0-2.9-.5-4-1.3.3-.2.6-.4.8-.7 1.4-1.2 2.2-3 2.2-5s-.8-3.8-2.2-5.1c-.2-.2-.5-.5-.8-.7 1.1-.7 2.5-1.2 4-1.2 3.9 0 7 3.1 7 7z"/>
</svg>
