<svg width="16" height="16" xmlns="http://www.w3.org/2000/svg" viewBox="0 0 16 16" aria-labelledby="title">
	<title>Join Left</title>
  <path d="M7.2 11.3c.3.3.5.5.8.7-.8.6-1.9 1-3 1-2.8 0-5-2.2-5-5s2.2-5 5-5c1.1 0 2.2.4 3 1-.3.2-.5.4-.8.7C6.5 5.6 6 6.7 6 8s.5 2.4 1.2 3.3zM11 3c-1.1 0-2.2.4-3 1 .3.2.5.4.8.7.6-.4 1.4-.7 2.2-.7 2.2 0 4 1.8 4 4s-1.8 4-4 4c-.8 0-1.6-.3-2.2-.7-.3.3-.5.5-.8.7.8.6 1.9 1 3 1 2.8 0 5-2.2 5-5s-2.2-5-5-5z"/>
  <path d="M10 8c0 1.3-.5 2.4-1.2 3.3-.3-.2-.5-.4-.8-.7C7.4 9.9 7 9 7 8s.4-1.9 1-2.6c.2-.2.5-.5.8-.7.7.9 1.2 2 1.2 3.3z"/>
</svg>
