<svg width="64" height="64" xmlns="http://www.w3.org/2000/svg" viewBox="0 0 64 64" aria-labelledby="title">
	<title>Join Left</title>
  <path d="M29.6 45.5c.7.7 1.5 1.4 2.4 2-3.1 2.2-6.9 3.5-11 3.5-10.5 0-19-8.5-19-19s8.5-19 19-19c4.1 0 7.9 1.3 11 3.5-.8.6-1.7 1.3-2.4 2C26.1 22 24 26.7 24 32s2.1 10 5.6 13.5zM43 13c-4.1 0-7.9 1.3-11 3.5.8.6 1.7 1.3 2.4 2 2.5-1.6 5.4-2.5 8.6-2.5 8.8 0 16 7.2 16 16s-7.2 16-16 16c-3.2 0-6.1-.9-8.6-2.5-.7.7-1.5 1.4-2.4 2 3.1 2.2 6.9 3.5 11 3.5 10.5 0 19-8.5 19-19s-8.5-19-19-19z"/>
  <path d="M40 32c0 5.3-2.1 10-5.6 13.5-.9-.5-1.7-1.2-2.4-1.9-3.1-2.9-5-7-5-11.6s1.9-8.7 5-11.6c.7-.7 1.5-1.3 2.4-1.9C37.9 22 40 26.7 40 32z"/>
</svg>
