<svg width="24" height="24" xmlns="http://www.w3.org/2000/svg" viewBox="0 0 24 24" aria-labelledby="title">
	<title>Join Inner</title>
  <path d="M16 5c-1.5 0-2.9.5-4 1.3C10.9 5.5 9.5 5 8 5c-3.9 0-7 3.1-7 7s3.1 7 7 7c1.5 0 2.9-.5 4-1.3 1.1.8 2.5 1.3 4 1.3 3.9 0 7-3.1 7-7s-3.1-7-7-7zM8 18c-3.3 0-6-2.7-6-6s2.7-6 6-6c1.2 0 2.3.3 3.2.9C9.8 8.2 9 10 9 12s.8 3.8 2.2 5.1c-.9.6-2 .9-3.2.9zm8 0c-1.2 0-2.3-.3-3.2-.9C14.2 15.8 15 14 15 12s-.8-3.8-2.2-5.1c.9-.6 2-.9 3.2-.9 3.3 0 6 2.7 6 6s-2.7 6-6 6z"/>
</svg>
