<svg width="32" height="32" xmlns="http://www.w3.org/2000/svg" viewBox="0 0 32 32" aria-labelledby="title">
	<title>Join Right</title>  
  <path d="M11 24c-4.4 0-8-3.6-8-8s3.6-8 8-8c1.1 0 2.2.2 3.2.7.5-.5 1.1-1 1.8-1.3-1.5-.9-3.2-1.4-5-1.4C5.5 6 1 10.5 1 16s4.5 10 10 10c1.8 0 3.5-.5 5-1.3-.7-.4-1.3-.8-1.8-1.3-1 .4-2.1.6-3.2.6z"/>
  <path d="M19 16c0 2.5-1.2 4.8-3 6.2-.5.4-1.2.8-1.8 1.1-2-1.8-3.2-4.4-3.2-7.3s1.2-5.5 3.2-7.3L16 9.8c1.8 1.4 3 3.7 3 6.2z"/>
  <path d="M31 16c0 5.5-4.5 10-10 10-1.8 0-3.5-.5-5-1.3.7-.4 1.3-.8 1.8-1.3 2-1.8 3.2-4.4 3.2-7.3s-1.2-5.5-3.2-7.3c-.5-.5-1.1-1-1.8-1.3 1.5-1 3.2-1.5 5-1.5 5.5 0 10 4.5 10 10z"/>
</svg>
