<svg width="32" height="32" xmlns="http://www.w3.org/2000/svg" viewBox="0 0 32 32" aria-labelledby="title">
	<title>Join Full</title>
  <path d="M14.2 23.3c.5.5 1.1 1 1.8 1.3-1.5.9-3.2 1.3-5 1.3C5.5 26 1 21.5 1 16S5.5 6 11 6c1.8 0 3.5.5 5 1.3-.7.4-1.3.8-1.8 1.3-2 1.8-3.2 4.4-3.2 7.3s1.2 5.6 3.2 7.4z"/>
  <path d="M19 16c0 2.5-1.2 4.8-3 6.2-1.8-1.5-3-3.7-3-6.2s1.2-4.8 3-6.2c1.8 1.4 3 3.7 3 6.2z"/>
  <path d="M31 16c0 5.5-4.5 10-10 10-1.8 0-3.5-.5-5-1.3.7-.4 1.3-.8 1.8-1.3 2-1.8 3.2-4.4 3.2-7.3s-1.2-5.5-3.2-7.3c-.5-.5-1.1-1-1.8-1.3 1.5-1 3.2-1.5 5-1.5 5.5 0 10 4.5 10 10z"/>
</svg>
