<svg width="16" height="16" xmlns="http://www.w3.org/2000/svg" viewBox="0 0 16 16" aria-labelledby="title">
	<title>Join Full</title>
  <path d="M7.2 11.3c.3.3.5.5.8.7-.8.6-1.9 1-3 1-2.8 0-5-2.2-5-5s2.2-5 5-5c1.1 0 2.2.4 3 1-.3.2-.5.4-.8.7C6.5 5.6 6 6.7 6 8s.5 2.4 1.2 3.3z"/>
  <path d="M9 8c0 1-.4 1.9-1 2.6C7.4 9.9 7 9 7 8s.4-1.9 1-2.6C8.6 6.1 9 7 9 8z"/>
  <path d="M16 8c0 2.8-2.2 5-5 5-1.1 0-2.2-.4-3-1 .3-.2.5-.4.8-.7.7-.9 1.2-2 1.2-3.3s-.5-2.4-1.2-3.3c-.3-.3-.5-.5-.8-.7.8-.6 1.9-1 3-1 2.8 0 5 2.2 5 5z"/>
</svg>
