<svg width="128" heigth="128" xmlns="http://www.w3.org/2000/svg" viewBox="0 0 128 128" aria-labelledby="title">
	<title>Join Outer</title>
  <path d="M60.5 94.3c1.1.9 2.3 1.8 3.5 2.5-6.1 3.9-13.3 6.1-21 6.1C21.5 103 4 85.5 4 64s17.5-39 39-39c7.7 0 14.9 2.2 21 6.1-1.2.8-2.4 1.6-3.5 2.5C51.6 40.8 46 51.8 46 64s5.6 23.2 14.5 30.3zM124 64c0 21.5-17.5 39-39 39-7.7 0-14.9-2.2-21-6.1 1.2-.8 2.4-1.6 3.5-2.5C76.4 87.2 82 76.2 82 64s-5.6-23.2-14.5-30.3c-1.1-.9-2.3-1.8-3.5-2.5 6.1-3.9 13.3-6.1 21-6.1 21.5-.1 39 17.4 39 38.9z"/>
</svg>
