<svg width="128" heigth="128" xmlns="http://www.w3.org/2000/svg" viewBox="0 0 128 128" aria-labelledby="title">
	<title>Join Right</title>
  <path d="M43 99C23.7 99 8 83.3 8 64s15.7-35 35-35c6.4 0 12.3 1.7 17.5 4.7 1.1-.9 2.3-1.8 3.5-2.5-6.1-4-13.3-6.2-21-6.2C21.5 25 4 42.5 4 64s17.5 39 39 39c7.7 0 14.9-2.2 21-6.1-1.2-.8-2.4-1.6-3.5-2.5C55.3 97.3 49.4 99 43 99z"/>
  <path d="M78 64c0 11.4-5.5 21.6-14 28-1.1.8-2.3 1.6-3.5 2.3C51.6 87.2 46 76.2 46 64s5.6-23.2 14.5-30.3c1.2.7 2.4 1.5 3.5 2.3 8.5 6.4 14 16.6 14 28z"/>
  <path d="M124 64c0 21.5-17.5 39-39 39-7.7 0-14.9-2.2-21-6.1 1.2-.8 2.4-1.6 3.5-2.5C76.4 87.2 82 76.2 82 64s-5.6-23.2-14.5-30.3c-1.1-.9-2.3-1.8-3.5-2.5 6.1-3.9 13.3-6.1 21-6.1 21.5-.1 39 17.4 39 38.9z"/>
</svg>
