<?xml version="1.0" encoding="utf-8"?>
<!-- Generator: Adobe Illustrator 20.1.0, SVG Export Plug-In . SVG Version: 6.00 Build 0)  -->
<svg version="1.1" id="icon" xmlns="http://www.w3.org/2000/svg" xmlns:xlink="http://www.w3.org/1999/xlink" x="0px" y="0px"
	 viewBox="0 0 32 32" enable-background="new 0 0 32 32" xml:space="preserve">
<path d="M16,2C8.3,2,2,8.3,2,16s6.3,14,14,14s14-6.3,14-14S23.7,2,16,2L16,2z"/>
<g>
	<g>
		<path fill="#FFFFFF" d="M14.6,8.6C15,8.2,15.5,8,16,8c0.6,0,1,0.2,1.4,0.6C17.8,9,18,9.5,18,10s-0.2,1-0.6,1.4
			C17,11.8,16.5,12,16,12c-0.6,0-1-0.2-1.4-0.6C14.2,11,14,10.5,14,10C14,9.5,14.2,9,14.6,8.6z"/>
	</g>
	<polygon fill="#FFFFFF" points="18,22 18,16 18,14 14,14 12,14 12,16 14,16 14,22 12,22 12,24 20,24 20,22 	"/>
</g>
</svg>
