<?xml version="1.0" encoding="utf-8"?>
<!-- Generator: Adobe Illustrator 19.2.1, SVG Export Plug-In . SVG Version: 6.00 Build 0)  -->
<svg version="1.1" id="Layer_1" xmlns="http://www.w3.org/2000/svg" xmlns:xlink="http://www.w3.org/1999/xlink" x="0px" y="0px"
	 viewBox="0 0 638 638" style="enable-background:new 0 0 638 638;" xml:space="preserve">
<style type="text/css">
	.st0{fill:#41D6C3;}
</style>
<title>nav-help</title>
<g>
	<path class="st0" d="M319,0C142.8,0,0,142.8,0,319s142.8,319,319,319s319-142.8,319-319C638.2,143.1,495.8,0.2,319.9,0
		C319.6,0,319.3,0,319,0z M319,591.2C165.9,591.2,46.8,467.9,46.8,319S170.1,46.8,319,46.8S591.2,170.1,591.2,319
		S472.1,591.2,319,591.2z"/>
	<path class="st0" d="M202,265.8c4.2-68.1,46.8-117,117-117c89.3,0,117,57.4,117,91.4c0,91.4-78.7,78.7-85.1,134v17h-63.8V370
		c6.4-80.8,78.7-74.4,74.4-123.4c0-27.6-14.9-42.5-38.3-42.5c-36.1,0-48.9,27.6-48.9,59.5C272.2,265.8,202,265.8,202,265.8z
		 M280.7,421.1h74.4v74.4h-74.4L280.7,421.1L280.7,421.1z"/>
</g>
</svg>
