<?xml version="1.0" encoding="utf-8"?>
<!-- Generator: Adobe Illustrator 17.1.0, SVG Export Plug-In . SVG Version: 6.00 Build 0)  -->
<!DOCTYPE svg PUBLIC "-//W3C//DTD SVG 1.1//EN" "http://www.w3.org/Graphics/SVG/1.1/DTD/svg11.dtd">
<svg version="1.1" xmlns="http://www.w3.org/2000/svg" xmlns:xlink="http://www.w3.org/1999/xlink" x="0px" y="0px" width="64px"
	 height="128px" viewBox="0 0 64 128" style="enable-background:new 0 0 64 128;" xml:space="preserve">
<style type="text/css">
	.iconBaseColor{fill:#1d3649;}
	.iconSelectedColor{fill:#4178be;}
</style>
<g id="favoritesBrand">
	<path class="iconBaseColor" d="M27.8,29h8.3c-0.9-1.2-2.4-2-4.2-2C30.3,27,28.7,27.8,27.8,29z"/>
	<path class="iconBaseColor" d="M27,31c0,0.2,0,0.3,0,0.5V33h10v-1.5c0-0.2,0-0.3,0-0.5H27z"/>
	<path class="iconBaseColor" d="M27,36.5c0,0.2,0,0.3,0,0.5H37c0-0.2,0-0.3,0-0.5V35H27V36.5z"/>
	<path class="iconBaseColor" d="M32,41c1.7,0,3.3-0.8,4.2-2h-8.3C28.7,40.2,30.3,41,32,41z"/>
	<path class="iconBaseColor" d="M19.2,30c-0.4,0.2-0.8,0.4-1.2,0.8c-0.3,0.3-0.6,0.7-0.8,1.2c-0.2,0.4-0.3,0.9-0.3,1.4
		c0,0.5,0.1,0.9,0.3,1.4c0.2,0.4,0.4,0.8,0.8,1.2c0.3,0.3,0.7,0.6,1.2,0.8c0.4,0.2,0.9,0.3,1.4,0.3c0,0,0,0,0,0c0,0,0,0,0,0
		c0.5,0,0.9-0.1,1.4-0.3c0.4-0.2,0.8-0.4,1.2-0.8c0.3-0.3,0.6-0.7,0.8-1.2l3-7.8L19.2,30z M23,34.4c-0.1,0.3-0.3,0.6-0.6,0.8
		c-0.2,0.2-0.5,0.4-0.8,0.6c-0.3,0.1-0.7,0.2-1,0.2c-0.3,0-0.7-0.1-1-0.2c-0.3-0.1-0.6-0.3-0.9-0.6c-0.2-0.2-0.4-0.5-0.6-0.8
		c-0.1-0.3-0.2-0.7-0.2-1c0-0.3,0.1-0.7,0.2-1c0.1-0.3,0.3-0.6,0.6-0.8c0.2-0.2,0.5-0.4,0.8-0.6l5.6-2.2L23,34.4z"/>
	<path class="iconBaseColor" d="M46.7,32c-0.2-0.4-0.4-0.8-0.8-1.2c-0.3-0.3-0.7-0.6-1.2-0.8L37,27l3,7.8c0.2,0.4,0.4,0.8,0.8,1.2
		c0.3,0.3,0.7,0.6,1.2,0.8c0.4,0.2,0.9,0.3,1.4,0.3c0,0,0,0,0,0c0,0,0,0,0,0c0.5,0,0.9-0.1,1.4-0.3c0.4-0.2,0.8-0.4,1.2-0.8
		c0.3-0.3,0.6-0.7,0.8-1.2c0.2-0.4,0.3-0.9,0.3-1.4C47,32.9,46.9,32.4,46.7,32z M45.8,34.4c-0.1,0.3-0.3,0.6-0.6,0.8
		c-0.2,0.2-0.5,0.4-0.8,0.6c-0.3,0.1-0.7,0.2-1,0.2c-0.3,0-0.7-0.1-1-0.2c-0.3-0.1-0.6-0.3-0.8-0.6c-0.2-0.2-0.4-0.5-0.6-0.8
		l-2.2-5.6l5.6,2.2c0.3,0.1,0.6,0.3,0.8,0.6c0.2,0.2,0.4,0.5,0.6,0.8c0.1,0.3,0.2,0.7,0.2,1C46,33.7,45.9,34.1,45.8,34.4z"/>
	<path class="iconBaseColor" d="M29.5,26c1.1,0,2-0.9,2-2c0-1.1-0.9-2-2-2s-2,0.9-2,2C27.5,25.1,28.4,26,29.5,26z M29.5,23
		c0.6,0,1,0.4,1,1s-0.4,1-1,1s-1-0.4-1-1S28.9,23,29.5,23z"/>
	<path class="iconBaseColor" d="M34.5,26c1.1,0,2-0.9,2-2c0-1.1-0.9-2-2-2c-1.1,0-2,0.9-2,2C32.5,25.1,33.4,26,34.5,26z M34.5,23
		c0.6,0,1,0.4,1,1s-0.4,1-1,1c-0.6,0-1-0.4-1-1S33.9,23,34.5,23z"/>
	<path class="iconSelectedColor" d="M27.8,93h8.3c-0.9-1.2-2.4-2-4.2-2C30.3,91,28.7,91.8,27.8,93z"/>
	<path class="iconSelectedColor" d="M27,95c0,0.2,0,0.3,0,0.5V97h10v-1.5c0-0.2,0-0.3,0-0.5H27z"/>
	<path class="iconSelectedColor" d="M27,100.5c0,0.2,0,0.3,0,0.5H37c0-0.2,0-0.3,0-0.5V99H27V100.5z"/>
	<path class="iconSelectedColor" d="M32,105c1.7,0,3.3-0.8,4.2-2h-8.3C28.7,104.2,30.3,105,32,105z"/>
	<path class="iconSelectedColor" d="M19.2,94c-0.4,0.2-0.8,0.4-1.2,0.8c-0.3,0.3-0.6,0.7-0.8,1.2c-0.2,0.4-0.3,0.9-0.3,1.4
		c0,0.5,0.1,0.9,0.3,1.4c0.2,0.4,0.4,0.8,0.8,1.2c0.3,0.3,0.7,0.6,1.2,0.8c0.4,0.2,0.9,0.3,1.4,0.3c0,0,0,0,0,0c0,0,0,0,0,0
		c0.5,0,0.9-0.1,1.4-0.3c0.4-0.2,0.8-0.4,1.2-0.8c0.3-0.3,0.6-0.7,0.8-1.2l3-7.8L19.2,94z M23,98.4c-0.1,0.3-0.3,0.6-0.6,0.8
		c-0.2,0.2-0.5,0.4-0.8,0.6c-0.3,0.1-0.7,0.2-1,0.2c-0.3,0-0.7-0.1-1-0.2c-0.3-0.1-0.6-0.3-0.9-0.6c-0.2-0.2-0.4-0.5-0.6-0.8
		c-0.1-0.3-0.2-0.7-0.2-1c0-0.3,0.1-0.7,0.2-1c0.1-0.3,0.3-0.6,0.6-0.8c0.2-0.2,0.5-0.4,0.8-0.6l5.6-2.2L23,98.4z"/>
	<path class="iconSelectedColor" d="M46.7,96c-0.2-0.4-0.4-0.8-0.8-1.2c-0.3-0.3-0.7-0.6-1.2-0.8L37,91l3,7.8
		c0.2,0.4,0.4,0.8,0.8,1.2c0.3,0.3,0.7,0.6,1.2,0.8c0.4,0.2,0.9,0.3,1.4,0.3c0,0,0,0,0,0c0,0,0,0,0,0c0.5,0,0.9-0.1,1.4-0.3
		c0.4-0.2,0.8-0.4,1.2-0.8c0.3-0.3,0.6-0.7,0.8-1.2c0.2-0.4,0.3-0.9,0.3-1.4C47,96.9,46.9,96.4,46.7,96z M45.8,98.4
		c-0.1,0.3-0.3,0.6-0.6,0.8c-0.2,0.2-0.5,0.4-0.8,0.6c-0.3,0.1-0.7,0.2-1,0.2c-0.3,0-0.7-0.1-1-0.2c-0.3-0.1-0.6-0.3-0.8-0.6
		c-0.2-0.2-0.4-0.5-0.6-0.8l-2.2-5.6l5.6,2.2c0.3,0.1,0.6,0.3,0.8,0.6c0.2,0.2,0.4,0.5,0.6,0.8c0.1,0.3,0.2,0.7,0.2,1
		C46,97.7,45.9,98.1,45.8,98.4z"/>
	<path class="iconSelectedColor" d="M29.5,90c1.1,0,2-0.9,2-2c0-1.1-0.9-2-2-2s-2,0.9-2,2C27.5,89.1,28.4,90,29.5,90z M29.5,87
		c0.6,0,1,0.4,1,1s-0.4,1-1,1s-1-0.4-1-1S28.9,87,29.5,87z"/>
	<path class="iconSelectedColor" d="M34.5,90c1.1,0,2-0.9,2-2c0-1.1-0.9-2-2-2c-1.1,0-2,0.9-2,2C32.5,89.1,33.4,90,34.5,90z
		 M34.5,87c0.6,0,1,0.4,1,1s-0.4,1-1,1c-0.6,0-1-0.4-1-1S33.9,87,34.5,87z"/>
</g>
<g id="browseBrand">
</g>
<g id="searchBrand">
</g>
<g id="etBrand">
</g>
<g id="workBrand">
</g>
<g id="tasksBrand">
</g>
<g id="adminBrand">
</g>
<g id="teamspacesBrand">
</g>
<g id="icaBrand">
	<g id="Layer_23">
	</g>
</g>
<g id="videoBrand">
</g>
<g id="favoritesBrandSelected">
</g>
<g id="browseBrandSelected">
</g>
<g id="searchBrandSelected">
</g>
<g id="etBrandSelected">
</g>
<g id="workBrandSelected">
</g>
<g id="tasksBrandSelected">
</g>
<g id="adminBrandSelected">
</g>
<g id="teamspacesBrandSelected">
</g>
<g id="icaBrandSelected">
	<g id="Layer_23_copy">
	</g>
</g>
<g id="videoBrandSelected">
</g>
<g id="favoritesLight">
</g>
<g id="browseLight">
</g>
<g id="searchLight">
</g>
<g id="etLight">
</g>
<g id="workLight">
</g>
<g id="tasksLight">
</g>
<g id="adminLight">
</g>
<g id="teamspacesLight">
</g>
<g id="icaLight">
</g>
<g id="videoLight">
</g>
<g id="browseDark">
</g>
<g id="searchDark">
</g>
<g id="etDark">
</g>
<g id="workDark">
</g>
<g id="tasksDark">
</g>
<g id="adminDark">
</g>
<g id="teamspacesDark">
</g>
<g id="icaDark">
</g>
<g id="videoDark">
</g>
<g id="favoritesDark">
</g>
</svg>
