<?xml version="1.0" encoding="utf-8"?>
<!-- Generator: Adobe Illustrator 20.1.0, SVG Export Plug-In . SVG Version: 6.00 Build 0)  -->
<svg version="1.1" id="Layer_1" xmlns="http://www.w3.org/2000/svg" xmlns:xlink="http://www.w3.org/1999/xlink" x="0px" y="0px"
	 viewBox="0 0 16 16" style="enable-background:new 0 0 16 16;" xml:space="preserve">
<title>maximize_2_16</title>
<path d="M16,16H0V0h16V16z M5.6,4.2L3.2,1.9L1.8,3.3l2.3,2.3L2.8,7H7V2.8L5.6,4.2z M2.8,9l1.4,1.4l-2.3,2.3l1.4,1.4l2.3-2.3L7,13.2
	V9H2.8z M13.2,9H9v4.2l1.4-1.4l2.3,2.3l1.4-1.4l-2.3-2.3L13.2,9z M13.2,7l-1.4-1.4l2.3-2.3l-1.4-1.4l-2.3,2.3L9,2.8V7H13.2L13.2,7z"
	/>
</svg>
