<?xml version="1.0" encoding="utf-8"?>
<!-- Generator: Adobe Illustrator 20.1.0, SVG Export Plug-In . SVG Version: 6.00 Build 0)  -->
<svg version="1.1" id="Layer_1" xmlns="http://www.w3.org/2000/svg" xmlns:xlink="http://www.w3.org/1999/xlink" x="0px" y="0px"
	 viewBox="0 0 16 16" style="enable-background:new 0 0 16 16;" xml:space="preserve">
<title>password-key_32</title>
<desc>Created with Sketch.</desc>
<g id="Page-1">
	<g id="password-key_32">
		<path d="M12.8,0L6.2,6.6C5.8,6.5,5.3,6.4,4.8,6.4C2.1,6.4,0,8.5,0,11.2S2.1,16,4.8,16s4.8-2.1,4.8-4.8c0-0.5-0.1-1-0.2-1.4
			l1.1-1.1V7.5h1.2L16,3.2V0H12.8z M3.7,13.3c-0.6,0-1.1-0.5-1.1-1.1s0.5-1.1,1.1-1.1s1.1,0.5,1.1,1.1S4.3,13.3,3.7,13.3z M10.9,5.7
			l-0.5-0.5L13.6,2l0.5,0.5L10.9,5.7z"/>
	</g>
</g>
</svg>
