<?xml version="1.0" encoding="utf-8"?>
<!-- Generator: Adobe Illustrator 20.1.0, SVG Export Plug-In . SVG Version: 6.00 Build 0)  -->
<svg version="1.0" id="Layer_1" xmlns="http://www.w3.org/2000/svg" xmlns:xlink="http://www.w3.org/1999/xlink" x="0px" y="0px"
	 viewBox="0 0 16 16" style="enable-background:new 0 0 16 16;" xml:space="preserve">
<style type="text/css">
	.st0{fill:#152935;}
</style>
<g id="Icons_1_">
	<g id="Black_1_" transform="translate(-700.000000, -560.000000)">
		<path id="Github" class="st0" d="M708,560c-4.4,0-8,3.7-8,8.2c0,3.6,2.3,6.7,5.5,7.8c0.4,0.1,0.5-0.2,0.5-0.4s0-0.7,0-1.4
			c-2.2,0.5-2.7-1.1-2.7-1.1c-0.4-0.9-0.9-1.2-0.9-1.2c-0.7-0.5,0.1-0.5,0.1-0.5c0.8,0.1,1.2,0.8,1.2,0.8c0.7,1.3,1.9,0.9,2.3,0.7
			c0.1-0.5,0.3-0.9,0.5-1.1c-1.8-0.2-3.6-0.9-3.6-4.1c0-0.9,0.3-1.6,0.8-2.2c-0.1-0.2-0.4-1,0.1-2.2c0,0,0.7-0.2,2.2,0.8
			c0.6-0.2,1.3-0.3,2-0.3s1.4,0.1,2,0.3c1.5-1.1,2.2-0.8,2.2-0.8c0.4,1.1,0.2,2,0.1,2.2c0.5,0.6,0.8,1.3,0.8,2.2
			c0,3.2-1.9,3.8-3.7,4c0.3,0.3,0.5,0.8,0.5,1.5c0,1.1,0,2,0,2.3c0,0.2,0.1,0.5,0.5,0.4c3.2-1.1,5.5-4.2,5.5-7.8
			C716,563.7,712.4,560,708,560"/>
	</g>
</g>
</svg>
