<?xml version="1.0" encoding="utf-8"?>
<!-- Generator: Adobe Illustrator 20.1.0, SVG Export Plug-In . SVG Version: 6.00 Build 0)  -->
<svg version="1.1" id="Layer_1" xmlns="http://www.w3.org/2000/svg" xmlns:xlink="http://www.w3.org/1999/xlink" x="0px" y="0px"
	 viewBox="0 0 16 16" style="enable-background:new 0 0 16 16;" xml:space="preserve">
<title>share</title>
<path d="M13,10c-0.8,0-1.5,0.3-2.1,0.9L6,8.4C6,8.3,6,8.1,6,8c0-0.1,0-0.3,0-0.4l5-2.4c1.2,1.1,3.1,1,4.2-0.2s1-3.1-0.2-4.2
	c-1.2-1.1-3.1-1-4.2,0.2C10.3,1.6,10,2.3,10,3.1c0,0.1,0,0.2,0,0.3L5,5.8C3.8,4.7,1.9,4.7,0.8,5.9S-0.3,9,0.9,10.2
	c1.2,1.1,3,1.1,4.1,0l5,2.5c0,0.1,0,0.2,0,0.4c0,1.7,1.3,3,3,3s3-1.3,3-3S14.7,10,13,10z"/>
</svg>
