<?xml version="1.0" encoding="utf-8"?>
<!-- Generator: Adobe Illustrator 20.1.0, SVG Export Plug-In . SVG Version: 6.00 Build 0)  -->
<svg version="1.0" id="Layer_1" xmlns="http://www.w3.org/2000/svg" xmlns:xlink="http://www.w3.org/1999/xlink" x="0px" y="0px"
	 viewBox="0 0 16 16" style="enable-background:new 0 0 16 16;" xml:space="preserve">
<style type="text/css">
	.st0{fill:#152935;}
</style>
<path class="st0" d="M8,0C3.6,0,0,3.6,0,8s3.6,8,8,8s8-3.6,8-8S12.4,0,8,0z M5.8,11.6H4.3V6.7h1.5V11.6z M5,6.1L5,6.1
	c-0.6,0-0.9-0.4-0.9-0.8c0-0.5,0.4-0.8,0.9-0.8c0.6,0,0.9,0.4,0.9,0.8S5.6,6.1,5,6.1z M11.9,11.6h-1.7V9.1C10.2,8.4,9.9,8,9.3,8
	C8.9,8,8.6,8.3,8.5,8.5c0,0.1,0,0.3,0,0.4v2.6H6.7c0,0,0-4.4,0-4.8h1.7v0.8C8.6,7.1,9.1,6.7,10,6.7c1.1,0,1.9,0.7,1.9,2.2V11.6z"/>
</svg>
