<?xml version="1.0" encoding="utf-8"?>
<!-- Generator: Adobe Illustrator 20.1.0, SVG Export Plug-In . SVG Version: 6.00 Build 0)  -->
<svg version="1.0" id="Layer_1" xmlns="http://www.w3.org/2000/svg" xmlns:xlink="http://www.w3.org/1999/xlink" x="0px" y="0px"
	 viewBox="0 0 16 16" style="enable-background:new 0 0 16 16;" xml:space="preserve">
<style type="text/css">
	.st0{fill:#152935;}
</style>
<path class="st0" d="M8,0C3.6,0,0,3.6,0,8s3.6,8,8,8s8-3.6,8-8S12.4,0,8,0z M11.2,6.3c0,0.1,0,0.1,0,0.2c0,2.2-1.6,4.8-4.6,4.8
	c-0.9,0-1.8-0.3-2.5-0.8c0.1,0,0.3,0,0.4,0c0.8,0,1.5-0.3,2-0.7C5.8,9.8,5.2,9.3,5,8.6c0.1,0,0.2,0,0.3,0c0.1,0,0.3,0,0.4-0.1
	C4.9,8.5,4.3,7.8,4.3,7l0,0C4.5,7.1,4.8,7.2,5,7.2C4.6,6.9,4.4,6.4,4.4,5.8c0-0.3,0.1-0.6,0.2-0.8c0.8,1,2,1.7,3.4,1.7
	c0-0.1,0-0.2,0-0.4c0-0.9,0.7-1.7,1.6-1.7c0.5,0,0.9,0.2,1.2,0.5c0.4-0.1,0.7-0.2,1-0.4c-0.1,0.4-0.4,0.7-0.7,0.9
	c0.3,0,0.6-0.1,0.9-0.3C11.8,5.8,11.5,6.1,11.2,6.3z"/>
</svg>
