<?xml version="1.0" encoding="utf-8"?>
<!-- Generator: Adobe Illustrator 17.1.0, SVG Export Plug-In . SVG Version: 6.00 Build 0)  -->
<!DOCTYPE svg PUBLIC "-//W3C//DTD SVG 1.1//EN" "http://www.w3.org/Graphics/SVG/1.1/DTD/svg11.dtd">
<svg version="1.1" xmlns="http://www.w3.org/2000/svg" xmlns:xlink="http://www.w3.org/1999/xlink" x="0px" y="0px" width="32px"
	 height="274px" viewBox="0 0 32 274" style="enable-background:new 0 0 32 274;" xml:space="preserve">
<style type="text/css">
	.iconBaseColor{fill:#008ABF;}
	.light{fill:#FFFFFF;}
	.dark{fill:#393A3F;}
</style>
<g id="upBrand">
	<polygon class="iconBaseColor" points="20,18 12,18 16,14 	"/>
</g>
<g id="upLight">
	<polyline class="light" points="12,40 16,36 20,40 	"/>
</g>
<g id="upDark">
	<polyline class="dark" points="12,62 16,58 20,62 	"/>
</g>
<g id="leftBrand">
	<polygon class="iconBaseColor" points="14,82 18,86 18,78 	"/>
</g>
<g id="leftLight">
	<polygon class="light" points="14,104 18,108 18,100 	"/>
</g>
<g id="leftDark">
	<polygon class="dark" points="14,126 18,130 18,122 	"/>
</g>
<g id="rightBrand">
	<polygon class="iconBaseColor" points="18,148 14,144 14,152 	"/>
</g>
<g id="rightLight">
	<polygon class="light" points="18,170 14,166 14,174 	"/>
</g>
<g id="rightDark">
	<polygon class="dark" points="18,192 14,188 14,196 	"/>
</g>
<g id="downBrand">
	<polygon class="iconBaseColor" points="16,216 20,212 12,212 	"/>
</g>
<g id="downLight">
	<polygon class="light" points="16,238 20,234 12,234 	"/>
</g>
<g id="downDark">
	<polygon class="dark" points="16,260 20,256 12,256 	"/>
</g>
</svg>
